<svg class="animated" id="freepik_stories-lantern" xmlns="http://www.w3.org/2000/svg" viewBox="0 0 500 500" version="1.1" xmlns:xlink="http://www.w3.org/1999/xlink" xmlns:svgjs="http://svgjs.com/svgjs"><style>svg#freepik_stories-lantern:not(.animated) .animable {opacity: 0;}svg#freepik_stories-lantern.animated #freepik--Plant--inject-301 {animation: 1.5s Infinite  linear wind;animation-delay: 0s;}svg#freepik_stories-lantern.animated #freepik--light-controls--inject-301 {animation: 1.5s Infinite  linear heartbeat;animation-delay: 0s;}            @keyframes wind {                0% {                    transform: rotate( 0deg );                }                25% {                    transform: rotate( 1deg );                }                75% {                    transform: rotate( -1deg );                }            }                    @keyframes heartbeat {                0% {                    transform: scale(1);                }                10% {                    transform: scale(1.1);                }                30% {                    transform: scale(1);                }                40% {                    transform: scale(1);                }                50% {                    transform: scale(1.1);                }                60% {                    transform: scale(1);                }                100% {                    transform: scale(1);                }            }        </style><g id="freepik--background-simple--inject-301" class="animable" style="transform-origin: 216.243px 223.54px;"><path d="M227.72,83.12c-16.95-21.13-55.38-32.83-82-27.63h0c-18.27,1.33-36.07,9.35-50.49,20.93C73.84,93.64,60.55,120,56.85,147.22c-2.41,17.78-.61,37,9.91,51.57s31.4,22.37,47.3,14.06c9.23-4.82,15.37-14,20-23.29s8.27-19.24,14.37-27.68,15.44-15.4,25.85-15.32,19.78,7.17,30.2,8.5c16,2.05,31.49-11,35.37-26.73S237.84,95.73,227.72,83.12Z" style="fill: rgb(245, 245, 245); transform-origin: 148.478px 135.254px;" id="elpvpk0ug6s99" class="animable"></path><g id="el7fqzkpqoy7"><circle cx="330.91" cy="138.54" r="34.78" style="fill: rgb(245, 245, 245); transform-origin: 330.91px 138.54px; transform: rotate(-76.92deg);" class="animable"></circle></g><path d="M245.54,376.39c-13.77-10.33-15.26-27.53-12.59-40.55s16.83-25.88,30.07-27c7.4-.63,14.74,1.39,22.12,2.17s15.57.07,21-5c5.2-4.86,6.62-12.48,10.41-18.51,6.53-10.41,20.39-15.1,32.29-12.06s21.46,13,25.41,24.61,2.65,24.67-2.14,36-12.89,21-22.22,29c-15.79,13.53-36.59,26-57.33,27.54s-33-4.74-48.44-17.32" style="fill: rgb(245, 245, 245); transform-origin: 304.218px 333.673px;" id="elxnn2yuueli" class="animable"></path></g><g id="freepik--Plant--inject-301" class="animable" style="transform-origin: 54.8111px 464.95px;"><path d="M50.93,446.57a7,7,0,0,1,4.35,3.32,12.46,12.46,0,0,1,1.55,5.35c.3,3.62-1,7.58-2.6,10.84-3.5-2-5.08-6.41-5.74-8.69-1.05-3.6-.76-10.75,2.44-10.82" style="fill: rgb(50, 205, 50); transform-origin: 52.409px 456.325px;" id="elayirstobaf" class="animable"></path><path d="M58.84,471.23a6,6,0,0,1,.79-5.93A7.88,7.88,0,0,1,65,462.37a3.37,3.37,0,0,1,2.74.63,2.57,2.57,0,0,1,.54,2.53,5.25,5.25,0,0,1-1.51,2.22c-2.26,2.13-4.84,3.77-7.93,3.48" style="fill: rgb(50, 205, 50); transform-origin: 63.3994px 466.782px;" id="eld6c9r8r74fe" class="animable"></path><path d="M57.18,482.82a3.91,3.91,0,0,1,0-.74c0-.53,0-1.22,0-2a20.85,20.85,0,0,1,.78-6.67,12.91,12.91,0,0,1,3.55-5.68,8.51,8.51,0,0,1,1.68-1.17,4.15,4.15,0,0,1,.5-.24l.18-.07a15.19,15.19,0,0,0-2.23,1.62,13.22,13.22,0,0,0-3.43,5.62A22.36,22.36,0,0,0,57.3,480c0,.86,0,1.56-.06,2A4.89,4.89,0,0,1,57.18,482.82Z" style="fill: rgb(38, 50, 56); transform-origin: 60.5143px 474.535px;" id="ely067l0tcxor" class="animable"></path><path d="M51.19,452s0,.1.1.31.13.53.23.9c.2.78.47,1.92.8,3.32.65,2.82,1.5,6.72,2.34,11.05s1.51,8.26,2,11.12c.22,1.43.39,2.58.5,3.38l.12.93a1.54,1.54,0,0,1,0,.32,2.29,2.29,0,0,1-.08-.32c0-.23-.09-.54-.16-.91-.15-.83-.34-2-.59-3.37-.49-2.85-1.19-6.77-2-11.1s-1.65-8.23-2.26-11.05c-.3-1.39-.54-2.53-.72-3.35-.08-.37-.14-.68-.19-.91A1.11,1.11,0,0,1,51.19,452Z" style="fill: rgb(38, 50, 56); transform-origin: 54.2392px 467.665px;" id="el4in41qcjtje" class="animable"></path><path d="M54.12,474.4a13.94,13.94,0,0,0-9.45-8.53c-1.09-.28-2.45-.34-3.12.57s-.23,2.19.38,3.14a11.9,11.9,0,0,0,12.18,5.12" style="fill: rgb(50, 205, 50); transform-origin: 47.667px 470.301px;" id="el8ds5i8gc6nk" class="animable"></path><path d="M45.82,469.12a5.49,5.49,0,0,1,.68.15c.22.06.49.13.79.24s.66.22,1,.39.78.34,1.2.58a13.14,13.14,0,0,1,1.3.78,14,14,0,0,1,5.29,6.53,12.46,12.46,0,0,1,.43,1.25,9.65,9.65,0,0,1,.26,1.07,6.29,6.29,0,0,1,.14.81,4,4,0,0,1,.06.7c-.06,0-.15-1-.64-2.52a12,12,0,0,0-.46-1.23,14.76,14.76,0,0,0-.64-1.35,16.27,16.27,0,0,0-2-2.8,17,17,0,0,0-2.58-2.26c-.44-.29-.86-.57-1.28-.79a13,13,0,0,0-1.16-.6C46.78,469.41,45.8,469.18,45.82,469.12Z" style="fill: rgb(38, 50, 56); transform-origin: 51.3949px 475.37px;" id="eltts5jfrmyr" class="animable"></path></g><g id="freepik--Character--inject-301" class="animable" style="transform-origin: 245.148px 286.399px;"><path d="M149,450.4l.48,21.09S128.24,479.06,128,483l40.92.52.59-32.88Z" style="fill: rgb(50, 205, 50); transform-origin: 148.755px 466.96px;" id="elaf3g7u0bljh" class="animable"></path><g id="elqbgzrxhchz"><g style="opacity: 0.6; transform-origin: 161.781px 471.405px;" class="animable"><path d="M162.19,469.88a1.67,1.67,0,0,1,1.13,1.92,1.6,1.6,0,0,1-1.9,1.13,1.76,1.76,0,0,1-1.18-2,1.66,1.66,0,0,1,2.1-1" style="fill: rgb(255, 255, 255); transform-origin: 161.781px 471.405px;" id="elnduntro1p5s" class="animable"></path></g></g><g id="eltzwjhdj68d"><g style="opacity: 0.6; transform-origin: 148.403px 481.835px;" class="animable"><path d="M168.87,483.49l-.07-3.31-39.2.73s-1.84.77-1.65,2.06Z" style="fill: rgb(255, 255, 255); transform-origin: 148.403px 481.835px;" id="el0svrb6koju9n" class="animable"></path></g></g><path d="M148.85,471.27c0,.2,1,.3,2,1s1.49,1.5,1.67,1.42-.1-1.23-1.29-2S148.81,471.09,148.85,471.27Z" style="fill: rgb(38, 50, 56); transform-origin: 150.709px 472.406px;" id="elh31udbxmnzu" class="animable"></path><path d="M144.54,473c0,.19.81.54,1.48,1.4s.85,1.75,1,1.74.34-1.13-.51-2.18S144.54,472.8,144.54,473Z" style="fill: rgb(38, 50, 56); transform-origin: 145.845px 474.529px;" id="eli36amyuoerk" class="animable"></path><path d="M142,478.1c.19,0,.48-1,0-2.06s-1.43-1.54-1.52-1.38.49.76.88,1.67S141.84,478.07,142,478.1Z" style="fill: rgb(38, 50, 56); transform-origin: 141.366px 476.365px;" id="elxojq8ee93o" class="animable"></path><path d="M149.27,466.45c.09.18,1-.08,2.13,0s2,.46,2.12.29-.74-.89-2.07-1S149.18,466.29,149.27,466.45Z" style="fill: rgb(38, 50, 56); transform-origin: 151.398px 466.256px;" id="ely1xsb84tin" class="animable"></path><g id="elr9c1ezy882"><g style="opacity: 0.3; transform-origin: 159.27px 456.24px;" class="animable"><polygon points="149.13 454.58 149.21 458.33 169.32 458.41 169.41 454.07 149.13 454.58" id="el2792hpj9mlv" class="animable" style="transform-origin: 159.27px 456.24px;"></polygon></g></g><path d="M149.25,462.2a3.94,3.94,0,0,0,2.05,0,9.27,9.27,0,0,0,3.34-1.24,2.7,2.7,0,0,0,.63-.47.89.89,0,0,0,.1-1.07,1.09,1.09,0,0,0-.87-.46,2.59,2.59,0,0,0-.77.09,8.34,8.34,0,0,0-1.28.42,7.42,7.42,0,0,0-1.9,1.22c-1,.87-1.3,1.61-1.23,1.65s.56-.55,1.54-1.27a7.87,7.87,0,0,1,1.84-1,7.78,7.78,0,0,1,1.18-.35c.43-.11.8-.11.91.09s0,.1,0,.23a2.1,2.1,0,0,1-.46.34,10.63,10.63,0,0,1-3.08,1.34A13.11,13.11,0,0,0,149.25,462.2Z" style="fill: rgb(38, 50, 56); transform-origin: 152.377px 460.65px;" id="el5haxl3jrezq" class="animable"></path><path d="M149.51,462.49a3.27,3.27,0,0,0,.57-2,6.83,6.83,0,0,0-.25-2.24,6.66,6.66,0,0,0-.51-1.26A1.7,1.7,0,0,0,148,456a1,1,0,0,0-.87.56,2.82,2.82,0,0,0-.22.75,4.58,4.58,0,0,0,0,1.38,4.77,4.77,0,0,0,.85,2.13c.79,1.07,1.62,1.32,1.64,1.25s-.63-.49-1.23-1.52a4.59,4.59,0,0,1-.57-3.12c.07-.43.24-.78.4-.73s.55.33.71.68a6.05,6.05,0,0,1,.49,1.12,7.6,7.6,0,0,1,.38,2.05C149.63,461.71,149.4,462.45,149.51,462.49Z" style="fill: rgb(38, 50, 56); transform-origin: 148.474px 459.245px;" id="elyeafm7763h" class="animable"></path><path d="M220.79,450.56l-.8,21.07s21.16,7.89,21.39,11.8l-40.92-.07-.11-32.9Z" style="fill: rgb(50, 205, 50); transform-origin: 220.865px 466.945px;" id="el6747c21dedh" class="animable"></path><g id="elarp7fes828s"><g style="opacity: 0.6; transform-origin: 207.73px 471.383px;" class="animable"><path d="M207.34,469.84a1.67,1.67,0,0,0-1.16,1.9,1.62,1.62,0,0,0,1.88,1.17,1.77,1.77,0,0,0,1.22-2,1.67,1.67,0,0,0-2.09-1" style="fill: rgb(255, 255, 255); transform-origin: 207.73px 471.383px;" id="eljmt8ju6kh3c" class="animable"></path></g></g><g id="eleh3ynbmle"><g style="opacity: 0.6; transform-origin: 220.928px 481.735px;" class="animable"><path d="M200.46,483.36l.12-3.32,39.19,1.31s1.82.79,1.61,2.08Z" style="fill: rgb(255, 255, 255); transform-origin: 220.928px 481.735px;" id="elvdk7jujlvii" class="animable"></path></g></g><path d="M220.66,471.43c0,.2-1,.28-2,.93s-1.51,1.48-1.7,1.4.12-1.24,1.32-2S220.7,471.24,220.66,471.43Z" style="fill: rgb(38, 50, 56); transform-origin: 218.785px 472.502px;" id="elwkv442h7l6" class="animable"></path><path d="M225,473.21c0,.19-.82.53-1.5,1.37s-.88,1.74-1.08,1.73-.33-1.14.54-2.17S224.94,473,225,473.21Z" style="fill: rgb(38, 50, 56); transform-origin: 223.637px 474.716px;" id="el10aaulp81g8k" class="animable"></path><path d="M227.38,478.35c-.19,0-.46-1,.05-2.05s1.45-1.53,1.54-1.36-.5.75-.91,1.65S227.57,478.33,227.38,478.35Z" style="fill: rgb(38, 50, 56); transform-origin: 228.058px 476.628px;" id="elrcqog7ygffi" class="animable"></path><path d="M220.31,466.6c-.09.18-1-.09-2.13,0s-2,.43-2.12.26.74-.88,2.08-.95S220.4,466.45,220.31,466.6Z" style="fill: rgb(38, 50, 56); transform-origin: 218.182px 466.406px;" id="elcxl7adnb9y8" class="animable"></path><g id="elhgazl9r1epb"><g style="opacity: 0.3; transform-origin: 210.49px 456.21px;" class="animable"><polygon points="220.63 454.73 220.49 458.49 200.38 458.27 200.35 453.93 220.63 454.73" id="els7r4xybri4c" class="animable" style="transform-origin: 210.49px 456.21px;"></polygon></g></g><path d="M220.39,462.35a3.91,3.91,0,0,1-2,0,9.08,9.08,0,0,1-2.15-.66A9,9,0,0,1,215,461a2.48,2.48,0,0,1-.62-.48.86.86,0,0,1-.09-1.06,1.1,1.1,0,0,1,.88-.46,2.55,2.55,0,0,1,.77.11,7,7,0,0,1,1.27.44,7.64,7.64,0,0,1,1.89,1.24c.94.88,1.27,1.63,1.2,1.67s-.55-.56-1.52-1.29a7.92,7.92,0,0,0-1.82-1,8.14,8.14,0,0,0-1.18-.37c-.43-.11-.8-.12-.91.08s0,.1,0,.23a2.1,2.1,0,0,0,.46.35,9.94,9.94,0,0,0,1.08.62,10.42,10.42,0,0,0,2,.76A13.61,13.61,0,0,1,220.39,462.35Z" style="fill: rgb(38, 50, 56); transform-origin: 217.269px 460.74px;" id="el8a39n0307rh" class="animable"></path><path d="M220.13,462.63a3.23,3.23,0,0,1-.54-2,6.47,6.47,0,0,1,.81-3.48,1.69,1.69,0,0,1,1.31-1,1,1,0,0,1,.85.58,2.58,2.58,0,0,1,.21.75,4.91,4.91,0,0,1,0,1.38,4.7,4.7,0,0,1-.88,2.11c-.8,1.06-1.64,1.3-1.65,1.23s.63-.48,1.24-1.5a4.73,4.73,0,0,0,.65-1.93,4.27,4.27,0,0,0,0-1.18c-.07-.43-.23-.79-.39-.74s-.55.32-.72.67a6.85,6.85,0,0,0-.51,1.11,7.32,7.32,0,0,0-.4,2C220,461.85,220.23,462.6,220.13,462.63Z" style="fill: rgb(38, 50, 56); transform-origin: 221.2px 459.39px;" id="el5eurl92h1wi" class="animable"></path><polygon points="199.3 247.78 225.52 469.92 200.49 471.09 169.82 288.65 171.12 470.12 145.88 468.56 133.4 257.89 199.3 247.78" style="fill: rgb(38, 50, 56); transform-origin: 179.46px 359.435px;" id="elopdm63iysyp" class="animable"></polygon><path d="M148.84,125.84a71.67,71.67,0,0,1-3.28-12,25.23,25.23,0,0,1,.83-12.3c.22-.59,2-4.57,2.66-4.52.45,0-.66,3.75-.42,4.13a21.41,21.41,0,0,1,2.55,12.42,55.79,55.79,0,0,1-2.34,12.26" style="fill: rgb(38, 50, 56); transform-origin: 148.219px 111.43px;" id="el0cja16al552r" class="animable"></path><path d="M160.47,160.42a11.82,11.82,0,0,1-11.73-11.68l-.5-38.73c-.47-10.4,5.2-19.34,15.61-19.52l1,0a18.61,18.61,0,0,1,17.83,17.87c.35,9,.63,19,.37,23.8-.54,10-10.58,11.11-10.58,11.11s0,2.32,0,5.25a11.84,11.84,0,0,1-11.94,11.86Z" style="fill: rgb(183, 136, 118); transform-origin: 165.682px 125.455px;" id="elj29nyyq4ti" class="animable"></path><path d="M172.43,143.31a24.16,24.16,0,0,1-12.84-4.37s2.87,7.38,12.87,6.9Z" style="fill: rgb(153, 80, 55); transform-origin: 166.025px 142.401px;" id="el23rr9jsnzrz" class="animable"></path><path d="M179.87,116.48a1.43,1.43,0,0,1-1.43,1.38,1.37,1.37,0,0,1-1.42-1.34,1.43,1.43,0,0,1,1.43-1.39A1.37,1.37,0,0,1,179.87,116.48Z" style="fill: rgb(38, 50, 56); transform-origin: 178.445px 116.495px;" id="elnn55rlavvtr" class="animable"></path><path d="M180.74,114.5c-.19.18-1.23-.67-2.77-.73s-2.69.67-2.85.47.12-.41.62-.75a3.85,3.85,0,0,1,2.29-.6,3.74,3.74,0,0,1,2.2.81C180.68,114.08,180.83,114.42,180.74,114.5Z" style="fill: rgb(38, 50, 56); transform-origin: 177.92px 113.704px;" id="el2r0c2e20wf4" class="animable"></path><path d="M166.23,115.71c-.18.18-1.23-.66-2.77-.72s-2.69.66-2.84.46.11-.41.62-.75a4,4,0,0,1,2.29-.6,3.74,3.74,0,0,1,2.19.81C166.17,115.29,166.32,115.63,166.23,115.71Z" style="fill: rgb(38, 50, 56); transform-origin: 163.416px 114.916px;" id="elsh5mse7umvh" class="animable"></path><path d="M170.3,124.46a10.72,10.72,0,0,1,2.51-.34c.39,0,.77-.09.85-.35a2.08,2.08,0,0,0-.22-1.18c-.33-1-.67-2-1-3-1.44-4.31-2.46-7.85-2.28-7.91s1.48,3.4,2.91,7.71l1,3a2.22,2.22,0,0,1,.14,1.54,1,1,0,0,1-.66.55,2.81,2.81,0,0,1-.67.06A9.87,9.87,0,0,1,170.3,124.46Z" style="fill: rgb(38, 50, 56); transform-origin: 172.213px 118.134px;" id="elhtnbn94985e" class="animable"></path><path d="M171.92,129.86c-.22.11-.89-1.42-2.66-1.93s-3.34.35-3.44.15.23-.46.91-.78a4.22,4.22,0,0,1,2.83-.21,3.58,3.58,0,0,1,2.14,1.67C172,129.37,172,129.82,171.92,129.86Z" style="fill: rgb(38, 50, 56); transform-origin: 168.884px 128.402px;" id="elgz14pzfelf" class="animable"></path><path d="M166.61,113.18c-.22.39-1.7-.08-3.51-.18s-3.33.13-3.5-.28c-.07-.2.24-.54.89-.83a6.12,6.12,0,0,1,5.34.35C166.44,112.62,166.71,113,166.61,113.18Z" style="fill: rgb(38, 50, 56); transform-origin: 163.11px 112.385px;" id="el7fxuhu857t4" class="animable"></path><path d="M180.2,109.55c-.3.35-1.54,0-3,0s-2.73.29-3-.07c-.13-.17.06-.52.6-.87a5,5,0,0,1,4.88,0C180.16,109,180.34,109.37,180.2,109.55Z" style="fill: rgb(38, 50, 56); transform-origin: 177.203px 108.84px;" id="elflyg97xkdmh" class="animable"></path><path d="M148.75,117.43c-.17-.08-6.78-2.31-6.84,4.53s6.81,5.48,6.82,5.29S148.75,117.43,148.75,117.43Z" style="fill: rgb(183, 136, 118); transform-origin: 145.33px 122.253px;" id="elntpobzuyw5" class="animable"></path><path d="M146.67,124.64s-.12.08-.32.17a1.17,1.17,0,0,1-.89,0,2.93,2.93,0,0,1-1.34-2.65,3.83,3.83,0,0,1,.35-1.7,1.37,1.37,0,0,1,.9-.91.61.61,0,0,1,.7.33c.09.19.05.33.08.34s.15-.11.1-.39a.76.76,0,0,0-.27-.43.84.84,0,0,0-.65-.18,1.68,1.68,0,0,0-1.26,1,4.18,4.18,0,0,0-.43,1.9,3.09,3.09,0,0,0,1.71,3,1.27,1.27,0,0,0,1.09-.17C146.65,124.8,146.69,124.65,146.67,124.64Z" style="fill: rgb(153, 80, 55); transform-origin: 145.153px 122.193px;" id="elni9san1uqf" class="animable"></path><path d="M178.23,97.07c1.1-.61-2.21-4.19-4.93-5.42-4.11-1.87-10.38-3-14.17-2-4.56,1.29-8.35,3.56-10.64,7.71a26.88,26.88,0,0,0-3,13.72,8.17,8.17,0,0,0,1,4.17c.95,1.51,2.78,2.47,2.7,4.55a2.89,2.89,0,0,0,.71,2.09c1.25,1.33,2.78.08,3.48-1.17,1.51-2.68,1.68-5.87,1.81-8.94a19.93,19.93,0,0,0-.43-6.5c-.33-1.14-.87-2.21-1.14-3.37a4.1,4.1,0,0,1,.49-3.41,3.52,3.52,0,0,1,.55-.56,7.12,7.12,0,0,1,7.07-1.34c3.85,1.36,10.42,3.4,12.14,2.09a10.56,10.56,0,0,0,3.06-3.1Z" style="fill: rgb(38, 50, 56); transform-origin: 161.952px 105.869px;" id="elldwcp7h7nyp" class="animable"></path><path d="M203.52,271.36l-4.21-37.77-3.16-58.13-1.92-26.32-5.06.77-3.62-.95-7.35,1.45-3.84-5.9-1.9-.36c0,4.81-.72,9.24-3.18,12.44l-19.84-14.86-2.1.54-3.4,7.58s-20.76,11.78-21.88,13.46L133,197l.91,37.24-1.67,37.16Z" style="fill: rgb(50, 205, 50); transform-origin: 162.79px 206.565px;" id="elv7c7lduvnqo" class="animable"></path><path d="M136,174.11c-.08,0-.41-.89-1.21-2.23a17.15,17.15,0,0,0-3.95-4.53,16.9,16.9,0,0,0-5.31-2.83c-1.48-.48-2.45-.59-2.43-.69a2,2,0,0,1,.69,0,11.61,11.61,0,0,1,1.85.33,15.16,15.16,0,0,1,5.52,2.79,14.93,14.93,0,0,1,3.95,4.75,10,10,0,0,1,.74,1.73C136,173.86,136.07,174.09,136,174.11Z" style="fill: rgb(38, 50, 56); transform-origin: 129.563px 168.955px;" id="elmm37k10qew" class="animable"></path><path d="M190,156.46a7.23,7.23,0,0,1-.57-2.66,7.43,7.43,0,0,1-.06-2.71,13.81,13.81,0,0,1,.63,5.37Z" style="fill: rgb(38, 50, 56); transform-origin: 189.659px 153.775px;" id="el819ywb47kfy" class="animable"></path><path d="M185.5,252.84a2.36,2.36,0,0,1-.5,0l-1.41-.16c-1.22-.14-3-.42-5.15-.82a107.56,107.56,0,0,1-32.29-11.69c-1.93-1.07-3.46-2-4.49-2.67-.47-.31-.87-.56-1.19-.78s-.4-.28-.39-.3a2.15,2.15,0,0,1,.45.22l1.23.69c1.07.62,2.62,1.49,4.56,2.52a120.89,120.89,0,0,0,32.19,11.65c2.15.44,3.9.77,5.11,1l1.4.25A1.79,1.79,0,0,1,185.5,252.84Z" style="fill: rgb(38, 50, 56); transform-origin: 162.79px 244.637px;" id="elj9vio5adf6r" class="animable"></path><path d="M229.94,142.45,212.21,114l-6-9.71a22.25,22.25,0,0,0-2.8-4c-2.67-2.9-4.56-.81-4.56-.81a1.8,1.8,0,0,0-1.78-1.1,3,3,0,0,0-2.45,1.25,4.14,4.14,0,0,0-2.74-.93,2.09,2.09,0,0,0-1.27.41c-.66-.58-1.87-1.41-3-1-.91.33-6.42,4.52-7.78,6.63-.67,1,.57,2.4,2.25,1.77a14.63,14.63,0,0,0,2-.82,5.37,5.37,0,0,0,1.36-1.1s-1.39,2.44,0,2.86a3.17,3.17,0,0,0,2.61-.63c.53-.45,1.14-1,1.72-1.59a.36.36,0,0,0-.07.1c-.77,1.13,1.23,2.81,2.2,2.13a13.4,13.4,0,0,0,1.3-1c2.25,1.63-.88,3.72-2.2,3.61a41.48,41.48,0,0,0-6.1,0,4.37,4.37,0,0,0-2.79,1c-.74.76,0,2.38,1.09,2.54,2,.3,4.42.73,7,1.39,3,.78,11,3.36,11,3.36l.77.63,10.78,26.29-18.45,3.91-4.12,23.38,33.31-9C230.93,159.58,234.49,149.59,229.94,142.45Z" style="fill: rgb(183, 136, 118); transform-origin: 205.802px 135.285px;" id="eln441xsfrcsp" class="animable"></path><path d="M201.13,118.31a1.89,1.89,0,0,1-.42-.1l-1.2-.34-4.38-1.3-3-.92c-1.09-.33-2.25-.68-3.49-1a32,32,0,0,0-3.9-.81,6.78,6.78,0,0,1-2.12-.38,1.48,1.48,0,0,1-.47-.36.64.64,0,0,1-.16-.28l-.05-.29a2.65,2.65,0,0,1,.08-1.15,1.56,1.56,0,0,1,.76-.89,5.52,5.52,0,0,1,1-.41,7.17,7.17,0,0,1,2.14-.26c1.41,0,2.73.21,4,.16a13.35,13.35,0,0,0,1.83-.18c.59-.11,1.16-.26,1.71-.4a9.07,9.07,0,0,1,3.15-.4,8.5,8.5,0,0,1,2.54.64,17.3,17.3,0,0,1,1.77.87c.48.27.83.49,1.07.64a2.13,2.13,0,0,1,.36.24,2.56,2.56,0,0,1-.38-.19l-1.1-.59a16.3,16.3,0,0,0-1.78-.82,8.42,8.42,0,0,0-2.5-.59,8.76,8.76,0,0,0-3.07.42c-.55.15-1.12.31-1.72.42a11.39,11.39,0,0,1-1.87.2c-1.29.06-2.64-.13-4-.15a6.79,6.79,0,0,0-2.05.26c-.66.21-1.42.45-1.62,1.12a2.5,2.5,0,0,0-.06,1l0,.25a.46.46,0,0,0,.1.18,1.14,1.14,0,0,0,.39.29,7,7,0,0,0,2,.36,32,32,0,0,1,3.93.83c1.24.32,2.4.67,3.48,1l3,.95,4.36,1.39,1.18.39A2.77,2.77,0,0,1,201.13,118.31Z" style="fill: rgb(153, 80, 55); transform-origin: 192.13px 113.649px;" id="elw90mg4xzg6" class="animable"></path><path d="M187.47,98.13c0,.05-.84.55-2.12,1.52a23.27,23.27,0,0,0-2.12,1.83c-.75.74-1.55,1.6-2.49,2.41a2.64,2.64,0,0,0-1,1.33.95.95,0,0,0,.66,1.16,2.74,2.74,0,0,0,1.42,0,6.5,6.5,0,0,0,1.24-.36,8.9,8.9,0,0,0,2.2-1.33,2.51,2.51,0,0,1-.49.51,6.63,6.63,0,0,1-1.63,1,6.78,6.78,0,0,1-1.27.4,3.06,3.06,0,0,1-1.56,0,1.28,1.28,0,0,1-.7-.54,1.3,1.3,0,0,1-.14-.92,2.82,2.82,0,0,1,1.09-1.49c.92-.8,1.72-1.65,2.49-2.38a18.4,18.4,0,0,1,2.19-1.81c.65-.47,1.21-.81,1.6-1A3.94,3.94,0,0,1,187.47,98.13Z" style="fill: rgb(153, 80, 55); transform-origin: 183.455px 102.416px;" id="elz3m80c9wyi" class="animable"></path><path d="M194.23,100.37a6.23,6.23,0,0,1-.63.75l-1.78,1.95L189.16,106a6.45,6.45,0,0,1-1.88,1.43,2.84,2.84,0,0,1-1.24.31,1.7,1.7,0,0,1-1.24-.5,1.14,1.14,0,0,1-.3-.67,2,2,0,0,1,.08-.7,3.91,3.91,0,0,1,.57-1.18h0l2.64-2.84c.81-.87,1.59-1.57,2.22-2.17a4.64,4.64,0,0,1,.93-.74,2.29,2.29,0,0,1,.88-.19c.47,0,.75,0,.73.06a2.23,2.23,0,0,0-.73,0A2.46,2.46,0,0,0,191,99a4.72,4.72,0,0,0-.87.75c-.62.62-1.38,1.33-2.17,2.2s-1.67,1.84-2.62,2.87v0a4,4,0,0,0-.52,1.1,1.71,1.71,0,0,0-.07.59.89.89,0,0,0,.23.51,1.41,1.41,0,0,0,1,.41,2.48,2.48,0,0,0,1.12-.28,6.44,6.44,0,0,0,1.8-1.35l2.71-2.84,1.84-1.9.51-.5A.9.9,0,0,1,194.23,100.37Z" style="fill: rgb(153, 80, 55); transform-origin: 189.363px 103.245px;" id="elasysmjashm" class="animable"></path><path d="M202.51,103s0,.17-.21.32a1.17,1.17,0,0,1-.9.22,1.19,1.19,0,0,1-.77-.51c-.12-.21-.12-.36-.09-.37s.11.1.25.24a1.2,1.2,0,0,0,.66.36,1.31,1.31,0,0,0,.74-.11C202.38,103,202.48,103,202.51,103Z" style="fill: rgb(153, 80, 55); transform-origin: 201.517px 103.108px;" id="el222ntmckdhp" class="animable"></path><path d="M203.16,105.46c-.06.05-.46-.36-.82-1a2.33,2.33,0,0,1-.45-1.19c.07,0,.34.46.69,1A3.9,3.9,0,0,1,203.16,105.46Z" style="fill: rgb(153, 80, 55); transform-origin: 202.525px 104.367px;" id="elrdzb4x6dct" class="animable"></path><path d="M204.36,115.13a3.44,3.44,0,0,1-.52-1.12,9.48,9.48,0,0,1-.44-3,9.29,9.29,0,0,1,.52-2.94,4.21,4.21,0,0,1,.54-1.12,15.37,15.37,0,0,0-.78,4.06A14.57,14.57,0,0,0,204.36,115.13Z" style="fill: rgb(153, 80, 55); transform-origin: 203.929px 111.04px;" id="elatmrmxvni76" class="animable"></path><path d="M218.92,152.61c-.06,0-.11-.58-.39-1.46a9.32,9.32,0,0,0-.64-1.48,8.88,8.88,0,0,0-2.59-2.95,8.3,8.3,0,0,0-1.39-.83c-.84-.39-1.41-.52-1.39-.57s.14,0,.4.05a6,6,0,0,1,1.07.34,7.62,7.62,0,0,1,1.46.79,8.41,8.41,0,0,1,2.67,3.05,8.12,8.12,0,0,1,.6,1.55,6.2,6.2,0,0,1,.2,1.1A1.49,1.49,0,0,1,218.92,152.61Z" style="fill: rgb(153, 80, 55); transform-origin: 215.727px 148.955px;" id="el8j6f5ficwy" class="animable"></path><path d="M197.85,101.31a2.38,2.38,0,0,1-.28.42c-.2.26-.49.62-.86,1.06-.74.89-1.8,2.08-3,3.33a5.49,5.49,0,0,1-2,1.53,1.71,1.71,0,0,1-1.14,0,1.42,1.42,0,0,1-.73-.67,2.23,2.23,0,0,1-.21-1.38,1.27,1.27,0,0,1,.13-.49,2.38,2.38,0,0,1,0,.5,2.35,2.35,0,0,0,.27,1.27,1.24,1.24,0,0,0,.64.55,1.5,1.5,0,0,0,1,0,5.64,5.64,0,0,0,1.87-1.49c1.24-1.24,2.32-2.41,3.09-3.26A12.57,12.57,0,0,1,197.85,101.31Z" style="fill: rgb(153, 80, 55); transform-origin: 193.724px 104.529px;" id="elu4n96r4ixam" class="animable"></path><path d="M201.7,101.73a2.4,2.4,0,0,1-.3.39c-.21.24-.51.58-.89,1l-1.35,1.46-.8.85a7.22,7.22,0,0,1-.94.87,2.33,2.33,0,0,1-1.21.48,1.26,1.26,0,0,1-1.14-.5.93.93,0,0,1-.18-.58,1,1,0,0,1,.17-.53,8.93,8.93,0,0,1,.54-.76c.33-.46.6-.82.8-1.07a1.81,1.81,0,0,1,.32-.37s-.07.16-.24.43-.42.65-.73,1.11c-.15.24-.35.49-.5.76a.75.75,0,0,0,0,.87,1,1,0,0,0,.92.38,2,2,0,0,0,1.08-.44,6.55,6.55,0,0,0,.91-.83l.81-.84,1.38-1.41.95-.94C201.55,101.83,201.68,101.72,201.7,101.73Z" style="fill: rgb(153, 80, 55); transform-origin: 198.295px 104.258px;" id="elzfzcygpeqfr" class="animable"></path><polygon points="192.54 149.4 208.03 146.01 206.12 172.52 190.61 178.97 187.36 174.6 186.87 160.92 192.54 149.4" style="fill: rgb(50, 205, 50); transform-origin: 197.45px 162.49px;" id="elp3jr9fd86af" class="animable"></polygon><path d="M122.37,163a7.17,7.17,0,0,0-3.16,4.34c-.94,3.2-8.66,30-8.66,30l13-.33,10.33-12.55L126,163.28Z" style="fill: rgb(50, 205, 50); transform-origin: 122.215px 180.17px;" id="elet7hfonxgwb" class="animable"></path><polygon points="191.01 229.63 361.68 259.41 351.42 135.4 191.01 206.78 191.01 229.63" style="fill: rgb(50, 205, 50); transform-origin: 276.345px 197.405px;" id="elg6h4cosn0e9" class="animable"></polygon><g id="eletpdf67j8fh"><g style="opacity: 0.8; transform-origin: 276.345px 197.405px;" class="animable"><polygon points="191.01 229.63 361.68 259.41 351.42 135.4 191.01 206.78 191.01 229.63" style="fill: rgb(255, 255, 255); transform-origin: 276.345px 197.405px;" id="el1wwucld70rd" class="animable"></polygon></g></g><path d="M310.87,193.15a2.4,2.4,0,1,1-3.38-.36A2.4,2.4,0,0,1,310.87,193.15Z" style="fill: rgb(50, 205, 50); transform-origin: 309.001px 194.655px;" id="elc5bwp51kznd" class="animable"></path><g id="eluazqn7s12kh"><g style="opacity: 0.6; transform-origin: 309.001px 194.655px;" class="animable"><path d="M310.87,193.15a2.4,2.4,0,1,1-3.38-.36A2.4,2.4,0,0,1,310.87,193.15Z" style="fill: rgb(255, 255, 255); transform-origin: 309.001px 194.655px;" id="el58mc8nvcqsj" class="animable"></path></g></g><path d="M252.91,200.85a1.2,1.2,0,1,1-1.69-.18A1.21,1.21,0,0,1,252.91,200.85Z" style="fill: rgb(50, 205, 50); transform-origin: 251.975px 201.605px;" id="el7lcjpt7w8j9" class="animable"></path><g id="eldo1bigf9bd"><g style="opacity: 0.6; transform-origin: 251.975px 201.605px;" class="animable"><path d="M252.91,200.85a1.2,1.2,0,1,1-1.69-.18A1.21,1.21,0,0,1,252.91,200.85Z" style="fill: rgb(255, 255, 255); transform-origin: 251.975px 201.605px;" id="elsf6wjw4l7j" class="animable"></path></g></g><path d="M281.86,215a1.2,1.2,0,1,1-1.68-.18A1.2,1.2,0,0,1,281.86,215Z" style="fill: rgb(50, 205, 50); transform-origin: 280.929px 215.757px;" id="elggr60pt7jth" class="animable"></path><g id="el9n3zz8ek1u6"><g style="opacity: 0.6; transform-origin: 280.929px 215.757px;" class="animable"><path d="M281.86,215a1.2,1.2,0,1,1-1.68-.18A1.2,1.2,0,0,1,281.86,215Z" style="fill: rgb(255, 255, 255); transform-origin: 280.929px 215.757px;" id="el2v188jsrowh" class="animable"></path></g></g><circle cx="302.54" cy="178.07" r="1.2" style="fill: rgb(50, 205, 50); transform-origin: 302.54px 178.07px;" id="elqieanjjqnx8" class="animable"></circle><g id="elx98wi56hxoo"><g style="opacity: 0.6; transform-origin: 302.54px 178.07px;" class="animable"><circle cx="302.54" cy="178.07" r="1.2" style="fill: rgb(255, 255, 255); transform-origin: 302.54px 178.07px;" id="el4ezqnzrgir6" class="animable"></circle></g></g><path d="M199.36,210.42a1.19,1.19,0,1,1-1.68-.18A1.18,1.18,0,0,1,199.36,210.42Z" style="fill: rgb(50, 205, 50); transform-origin: 198.431px 211.161px;" id="el2wyz0qw1o6k" class="animable"></path><g id="elbhahzo4drw"><g style="opacity: 0.6; transform-origin: 198.431px 211.161px;" class="animable"><path d="M199.36,210.42a1.19,1.19,0,1,1-1.68-.18A1.18,1.18,0,0,1,199.36,210.42Z" style="fill: rgb(255, 255, 255); transform-origin: 198.431px 211.161px;" id="el8xaxr5whams" class="animable"></path></g></g><g id="elaxzb4bw70nb"><ellipse cx="357.85" cy="197.28" rx="19.11" ry="62.32" style="fill: rgb(50, 205, 50); transform-origin: 357.85px 197.28px; transform: rotate(-4.41deg);" class="animable"></ellipse></g><g id="elbvg8nbgxrdt"><g style="opacity: 0.7; transform-origin: 357.85px 197.28px;" class="animable"><g id="elzb4ntmte4nj"><ellipse cx="357.85" cy="197.28" rx="19.11" ry="62.32" style="fill: rgb(255, 255, 255); transform-origin: 357.85px 197.28px; transform: rotate(-4.41deg);" class="animable"></ellipse></g></g></g><g id="el8xe2aqowetu"><g style="opacity: 0.3; transform-origin: 161.81px 190.924px;" class="animable"><path d="M189.62,170.9a6.43,6.43,0,0,0-3.31-2.23c-6.12-2.18-13.09-.44-18.57,3s-9.78,8.51-14,13.46c-6.92,8.16-13.57,14.67-20.49,22.83l.15,6.18c5,.09,9.9-2.69,13.61-6s6.5-7.47,9.18-11.65,5.29-8.44,8.73-12a8,8,0,0,1,4.54-2.79c1.85-.23,3.63.68,5.43,1.19a13.07,13.07,0,0,0,14.09-5.3C190.29,175.63,191,172.88,189.62,170.9Z" id="elm4g8v59228t" class="animable" style="transform-origin: 161.81px 190.924px;"></path></g></g><g id="elymtpdvt8fhq"><g style="opacity: 0.3; transform-origin: 184.193px 225.957px;" class="animable"><path d="M180.21,205.74c-2.33-.28-4.55,1.37-5.67,3.43a17.9,17.9,0,0,0-1.62,6.8q-.9,8.68-1.78,17.37a14.52,14.52,0,0,0,.3,6.4,14.22,14.22,0,0,0,2.34,3.8,13.46,13.46,0,0,0,3.23,3.33,11.57,11.57,0,0,0,5.62,1.44,39.37,39.37,0,0,0,8.26-.42,7,7,0,0,0,4-1.61,7.09,7.09,0,0,0,1.6-3.7c2-9.93.55-20.2-.91-30.24-.31-2.13-.66-4.37-2-6.06-1.72-2.18-4.76-3-7.52-2.66a25,25,0,0,0-7.83,2.71" id="elljmiqr3faq" class="animable" style="transform-origin: 184.193px 225.957px;"></path></g></g><path d="M111.9,194.18l-2.2,5.88c-.65,2.47-1.63,7.82-.75,10.22.7,1.91,1.92,3.74,4,4,4.67.66,16.39-9.2,16.39-9.2l-2.74-12.33Z" style="fill: rgb(183, 136, 118); transform-origin: 118.97px 203.531px;" id="elnpcw4tnqh3i" class="animable"></path><path d="M162.17,161.53s-40.22,26.19-42,27.5a22.38,22.38,0,0,0-7.26,7.11c-3.27,4.72-5.18,15.84.07,18.17a23.81,23.81,0,0,0,7.27.62c5.65-1,17.75-7.53,23.4-14.38s25.48-27.82,25.48-27.82Z" style="fill: rgb(183, 136, 118); transform-origin: 139.422px 188.258px;" id="el4a2o78kojg4" class="animable"></path><path d="M161.59,161.91s5.64-2.4,7.53-2.51c1.53-.08,12.53,1.69,16.37,1.75a2.24,2.24,0,0,1,2,1.3c1,2.17,2.92,6.37,3.26,7.14.48,1.06-.33,3.24-1.32,4.58a1.66,1.66,0,0,1-2.43,1.21l-.43,1.06a3.12,3.12,0,0,1-3.17,1.91l-5.67-.55a2,2,0,0,1,2-2.32l3.2-.33-.05-1.75s-5.63.75-7.32.73-10.5-1.65-10.5-1.65Z" style="fill: rgb(183, 136, 118); transform-origin: 176.241px 168.88px;" id="eldni43zxpj58" class="animable"></path><path d="M187.17,175.43c-.15,0-.35-2.15-1.08-4.71s-1.68-4.5-1.54-4.57a15.68,15.68,0,0,1,2.62,9.28Z" style="fill: rgb(153, 80, 55); transform-origin: 185.859px 170.79px;" id="elsnwbamk3pqi" class="animable"></path><path d="M189.65,173.43c-.16,0-.35-2.16-1.08-4.71s-1.68-4.5-1.54-4.58a15.74,15.74,0,0,1,2.62,9.29Z" style="fill: rgb(153, 80, 55); transform-origin: 188.338px 168.785px;" id="el9nveoizn2tl" class="animable"></path><path d="M123.82,186.59c.12.16-4.09,2.31-7.87,6.56s-5.33,8.73-5.51,8.63a2.56,2.56,0,0,1,.21-.79,21.56,21.56,0,0,1,.85-2.06,25.81,25.81,0,0,1,4.06-6.12,27.43,27.43,0,0,1,5.58-4.78c.8-.5,1.45-.89,1.93-1.12S123.8,186.55,123.82,186.59Z" style="fill: rgb(153, 80, 55); transform-origin: 117.131px 194.182px;" id="el14ltgl830l9" class="animable"></path><path d="M183.13,173a3.71,3.71,0,0,1-.63.17c-.42.09-1,.21-1.84.31a24.58,24.58,0,0,1-6.87-.05c-.72-.1-1.47-.23-2.25-.37a11.29,11.29,0,0,0-2.37-.29,3.2,3.2,0,0,0-2,1.28c-.58.67-1.17,1.43-1.82,2.12l-8.39,9.19c-6,6.49-11.65,12.15-15.78,16.21-2.06,2-3.76,3.64-4.94,4.74l-1.37,1.26a3.55,3.55,0,0,1-.5.42s.13-.18.43-.49.77-.79,1.3-1.33l4.82-4.87c4.06-4.11,9.66-9.81,15.66-16.29l8.41-9.16c.67-.69,1.22-1.4,1.83-2.11a3.66,3.66,0,0,1,2.34-1.4,4.65,4.65,0,0,1,1.31.1l1.18.23,2.23.4a26.51,26.51,0,0,0,6.79.21c.81-.07,1.43-.16,1.85-.21A3.1,3.1,0,0,1,183.13,173Z" style="fill: rgb(255, 255, 255); transform-origin: 158.75px 190.16px;" id="elbjudh2xitng" class="animable"></path><path d="M186.42,175.34c.05,0,0,.54-.56,1.15a4.51,4.51,0,0,1-2.76,1.4,8.3,8.3,0,0,1-3-.24c-.75-.19-1.19-.36-1.18-.43a3.56,3.56,0,0,1,1.25.07,11.28,11.28,0,0,0,2.91.08,4.87,4.87,0,0,0,2.57-1.13C186.15,175.75,186.34,175.31,186.42,175.34Z" style="fill: rgb(255, 255, 255); transform-origin: 182.677px 176.636px;" id="elexwk3vw0rr5" class="animable"></path><path d="M189,173.43c.14,0,.13.4,0,.78s-.37.65-.5.6-.13-.4,0-.78S188.82,173.38,189,173.43Z" style="fill: rgb(255, 255, 255); transform-origin: 188.752px 174.12px;" id="elykssiplpx3" class="animable"></path><path d="M192.83,255.71a7.31,7.31,0,0,1-1.47,0c-.94,0-2.3,0-4-.15a94.18,94.18,0,0,1-25.7-5.4c-1.58-.58-2.85-1.08-3.71-1.46a7.2,7.2,0,0,1-1.32-.63,9.14,9.14,0,0,1,1.4.44c.88.33,2.16.77,3.75,1.3a116.48,116.48,0,0,0,12.65,3.44,119.45,119.45,0,0,0,13,1.94c1.67.15,3,.26,4,.32A7.66,7.66,0,0,1,192.83,255.71Z" style="fill: rgb(255, 255, 255); transform-origin: 174.73px 251.909px;" id="el5gtcmvafh89" class="animable"></path><path d="M181.43,135.09a2.2,2.2,0,0,1-.13.85,6.28,6.28,0,0,1-1,2.13,10,10,0,0,1-6.67,3.8,18,18,0,0,1-7.69-.88c-.94-.29-1.69-.57-2.2-.78a3,3,0,0,1-.78-.38,30.92,30.92,0,0,1,3.09.81,19.82,19.82,0,0,0,7.51.72,10.18,10.18,0,0,0,6.45-3.51A10.68,10.68,0,0,0,181.43,135.09Z" style="fill: rgb(255, 255, 255); transform-origin: 172.196px 138.527px;" id="ellbhe3snb3jp" class="animable"></path><path d="M205.07,171.76a19.15,19.15,0,0,1-3.89,2,17.74,17.74,0,0,1-4.09,1.48,19.15,19.15,0,0,1,3.89-1.95A17.74,17.74,0,0,1,205.07,171.76Z" style="fill: rgb(255, 255, 255); transform-origin: 201.08px 173.5px;" id="el1cx6gd3pbvg" class="animable"></path><path d="M226.61,160.22a15.28,15.28,0,0,1-2.61,1.25c-1.64.7-3.94,1.6-6.51,2.51s-4.92,1.62-6.64,2.1a14.3,14.3,0,0,1-2.82.65,17.85,17.85,0,0,1,2.71-1l6.58-2.25,6.55-2.35A15.91,15.91,0,0,1,226.61,160.22Z" style="fill: rgb(255, 255, 255); transform-origin: 217.32px 163.475px;" id="elmzovb1ynxii" class="animable"></path><path d="M178.1,208.78S172,217.92,176.22,227a10.12,10.12,0,0,0,5,4.93l.14.06h8.87a10.23,10.23,0,0,0,5.24-6.86c.94-4.4,1.31-11-2.8-16.15l-.38-1.29Z" style="fill: rgb(250, 250, 250); transform-origin: 185.407px 219.84px;" id="elmoejkin5bm" class="animable"></path><path d="M178.1,208.78l.94-.09,2.8-.27c2.44-.24,6-.61,10.47-1h.17l0,.16.39,1.29,0-.07a16.69,16.69,0,0,1,3.48,9.89,25.36,25.36,0,0,1-.5,6,10.38,10.38,0,0,1-2.89,5.62,10.93,10.93,0,0,1-1.22,1c-.22.16-.44.31-.67.45l-.34.21-.17.09-.09.05,0,0h0l-.12,0h-8.93l-.05,0a10.58,10.58,0,0,1-4.35-3.51,9.69,9.69,0,0,1-1.22-2.34c-.14-.4-.33-.79-.44-1.19s-.21-.8-.31-1.19a18.28,18.28,0,0,1,.17-8.34,24.2,24.2,0,0,1,1.94-5.13c.3-.56.55-1,.72-1.27a2.36,2.36,0,0,1,.3-.41,3.1,3.1,0,0,1-.22.45c-.16.3-.38.73-.65,1.31a25.39,25.39,0,0,0-1.79,5.12,18.18,18.18,0,0,0-.06,8.18c.1.38.21.76.32,1.15s.29.76.43,1.15a9,9,0,0,0,1.19,2.24,10.12,10.12,0,0,0,4.18,3.33l-.1,0h8.87l-.12,0h0l0,0,.08,0,.16-.09.33-.2c.21-.13.42-.28.63-.43a10,10,0,0,0,3.92-6.35,25.49,25.49,0,0,0,.5-5.84,16.3,16.3,0,0,0-3.31-9.65l0,0v0c-.13-.45-.26-.9-.37-1.3l.21.15c-4.3.32-7.82.53-10.31.69Z" style="fill: rgb(38, 50, 56); transform-origin: 185.508px 219.765px;" id="elrtsybl5ph2o" class="animable"></path><path d="M193.74,219.44c-.07-2.5-.63-5.16-2.43-6.91a9.27,9.27,0,0,0-4.67-2.18,8.62,8.62,0,0,0-5.08.22c-2.28,1-3.66,3.35-4.33,5.74a12.16,12.16,0,0,0,.48,8.51,8,8,0,0,0,6.84,4.64l2-.16a6.24,6.24,0,0,0,5.73-3.18A12.2,12.2,0,0,0,193.74,219.44Z" style="fill: rgb(50, 205, 50); transform-origin: 185.225px 219.764px;" id="eltw1j7wp4ffb" class="animable"></path><g id="elt0glhqlstnb"><g style="opacity: 0.8; transform-origin: 185.225px 219.764px;" class="animable"><path d="M193.74,219.44c-.07-2.5-.63-5.16-2.43-6.91a9.27,9.27,0,0,0-4.67-2.18,8.62,8.62,0,0,0-5.08.22c-2.28,1-3.66,3.35-4.33,5.74a12.16,12.16,0,0,0,.48,8.51,8,8,0,0,0,6.84,4.64l2-.16a6.24,6.24,0,0,0,5.73-3.18A12.2,12.2,0,0,0,193.74,219.44Z" style="fill: rgb(255, 255, 255); transform-origin: 185.225px 219.764px;" id="el4zp4bbf88y4" class="animable"></path></g></g><path d="M193.74,219.44c-.07-2.5-.63-5.16-2.43-6.91a9.27,9.27,0,0,0-4.67-2.18,8.62,8.62,0,0,0-5.08.22c-2.28,1-3.66,3.35-4.33,5.74a12.16,12.16,0,0,0,.48,8.51,8,8,0,0,0,6.84,4.64l2-.16a6.24,6.24,0,0,0,5.73-3.18A12.2,12.2,0,0,0,193.74,219.44Z" style="fill: rgb(50, 205, 50); transform-origin: 185.225px 219.764px;" id="el0rkch2r7enq" class="animable"></path><g id="elyefltg59he"><g style="opacity: 0.7; transform-origin: 185.225px 219.764px;" class="animable"><path d="M193.74,219.44c-.07-2.5-.63-5.16-2.43-6.91a9.27,9.27,0,0,0-4.67-2.18,8.62,8.62,0,0,0-5.08.22c-2.28,1-3.66,3.35-4.33,5.74a12.16,12.16,0,0,0,.48,8.51,8,8,0,0,0,6.84,4.64l2-.16a6.24,6.24,0,0,0,5.73-3.18A12.2,12.2,0,0,0,193.74,219.44Z" style="fill: rgb(255, 255, 255); transform-origin: 185.225px 219.764px;" id="eltye1xxmt7n" class="animable"></path></g></g><path d="M184.57,228.69h0Z" style="fill: rgb(50, 205, 50); transform-origin: 184.57px 228.69px;" id="elbo9mt1f87ia" class="animable"></path><path d="M190.17,221.07a8.71,8.71,0,0,0-2.64-5.63,3.1,3.1,0,0,0-1.17-.8,1.36,1.36,0,0,0-1.35.2,1.71,1.71,0,0,0-.34,1.68,10.59,10.59,0,0,1,.45,1.74,4.26,4.26,0,0,1-1.72,3.13,6.41,6.41,0,0,0-2.2,2.9,3.31,3.31,0,0,0,.85,2.93,4.33,4.33,0,0,0,2.5,1.47,5.8,5.8,0,0,0,3.53-1.8A7.7,7.7,0,0,0,190.17,221.07Z" style="fill: rgb(50, 205, 50); transform-origin: 185.662px 221.617px;" id="elesus9y9m0y5" class="animable"></path><g id="el9ms6efxna7p"><g style="opacity: 0.4; transform-origin: 185.662px 221.617px;" class="animable"><path d="M184.57,228.69h0Z" style="fill: rgb(255, 255, 255); transform-origin: 184.57px 228.69px;" id="elyuhqwc9p8t" class="animable"></path><path d="M190.17,221.07a8.71,8.71,0,0,0-2.64-5.63,3.1,3.1,0,0,0-1.17-.8,1.36,1.36,0,0,0-1.35.2,1.71,1.71,0,0,0-.34,1.68,10.59,10.59,0,0,1,.45,1.74,4.26,4.26,0,0,1-1.72,3.13,6.41,6.41,0,0,0-2.2,2.9,3.31,3.31,0,0,0,.85,2.93,4.33,4.33,0,0,0,2.5,1.47,5.8,5.8,0,0,0,3.53-1.8A7.7,7.7,0,0,0,190.17,221.07Z" style="fill: rgb(255, 255, 255); transform-origin: 185.662px 221.617px;" id="elyfm88mzvfum" class="animable"></path></g></g><path d="M185,228.47a3.16,3.16,0,0,1-1.77-2.44,2.4,2.4,0,0,1,.28-1.49,7.5,7.5,0,0,1,1.54-1.43,3.81,3.81,0,0,0,1.16-2.27,1.34,1.34,0,0,1,.1-.44.35.35,0,0,1,.35-.23c.16,0,.27.17.35.31a6.57,6.57,0,0,1,.8,2,4.2,4.2,0,0,1-.12,2.17c-.51,1.45-1.89,2.41-2.64,3.75" style="fill: rgb(50, 205, 50); transform-origin: 185.554px 224.32px;" id="el67svz3w7tjw" class="animable"></path><path d="M182.31,212.54c0,.07-.66.47-1.56,1.37a9.42,9.42,0,0,0-2.47,4.2,9.56,9.56,0,0,0,0,4.87c.33,1.23.74,1.92.66,2a4.58,4.58,0,0,1-1-1.86,8.89,8.89,0,0,1-.18-5.12,8.78,8.78,0,0,1,2.73-4.33A4.37,4.37,0,0,1,182.31,212.54Z" style="fill: rgb(50, 205, 50); transform-origin: 179.889px 218.76px;" id="elli1ca5trqk8" class="animable"></path><path d="M184.19,211.48c.05.14-.11.32-.36.42s-.5.07-.55-.07.11-.32.36-.42S184.13,211.35,184.19,211.48Z" style="fill: rgb(50, 205, 50); transform-origin: 183.735px 211.656px;" id="elj446h8mwerm" class="animable"></path><path d="M185.31,240.24c-2.5,0-5.15-.05-7.49-.19a7.63,7.63,0,0,1-5.69-2.48,6.85,6.85,0,0,1-1.46-4.81c0-.66,1.41-19.74,2-27.78.21-3,1.19-5.18,2.92-6.47a7,7,0,0,1,5.22-1.1l9.26-.12c6.17-.22,8.16,3.53,8.34,5.56.16,1.28,3.21,25.73,2.65,30.52-.63,5.33-5.94,6.61-6.16,6.66l-.17,0C194.62,240.05,190.26,240.24,185.31,240.24Zm-5.83-41.09a4.73,4.73,0,0,0-2.85.87c-1.26.94-2,2.65-2.16,5.08-.55,8.15-1.94,27.61-1.95,27.8v0a5.1,5.1,0,0,0,1.06,3.45,5.92,5.92,0,0,0,4.36,1.8c6.5.39,15.56,0,16.58,0,.58-.15,4.21-1.27,4.66-5,.54-4.58-2.62-29.84-2.66-30.09v0a4.12,4.12,0,0,0-.94-2c-1.11-1.32-3-1.94-5.5-1.85l-9.5.11-.11,0A4.44,4.44,0,0,0,179.48,199.15Z" style="fill: rgb(38, 50, 56); transform-origin: 185.888px 218.76px;" id="elukm5r7tae6r" class="animable"></path><path d="M176.31,191.71h19.21L188.21,188a5.62,5.62,0,0,0-2.51-.6h0a5.54,5.54,0,0,0-2.64.67Z" style="fill: rgb(69, 90, 100); transform-origin: 185.915px 189.555px;" id="el8vvrno6hp0j" class="animable"></path><rect x="179.5" y="190.94" width="12.83" height="15.99" style="fill: rgb(69, 90, 100); transform-origin: 185.915px 198.935px;" id="elmhnezfdt9yj" class="animable"></rect><rect x="177.4" y="206.34" width="16.6" height="2.58" rx="1.17" style="fill: rgb(69, 90, 100); transform-origin: 185.7px 207.63px;" id="el6z2h3vthq1a" class="animable"></rect><path d="M174.18,201.91a5.59,5.59,0,0,1,0-1.28c0-.92.05-2.08.08-3.46.09-2.92.26-6.95.47-11.41.06-1.12.08-2.19.19-3.26a10.6,10.6,0,0,1,.78-3,10.41,10.41,0,0,1,3.16-4.11,9.89,9.89,0,0,1,3.08-1.65,6.71,6.71,0,0,1,.92-.23c.21,0,.33-.06.33,0a9.64,9.64,0,0,1-1.18.46,10.91,10.91,0,0,0-2.92,1.74,10.38,10.38,0,0,0-3,4,10.53,10.53,0,0,0-.72,2.86c-.09,1-.11,2.13-.17,3.24-.21,4.45-.43,8.48-.62,11.4-.1,1.38-.18,2.53-.25,3.45A5.81,5.81,0,0,1,174.18,201.91Z" style="fill: rgb(38, 50, 56); transform-origin: 178.667px 187.697px;" id="elqmtjr0mnd8j" class="animable"></path><path d="M189.49,174a.87.87,0,0,1,.3.08,5.1,5.1,0,0,1,.82.37,9.75,9.75,0,0,1,2.65,2,10.56,10.56,0,0,1,2.46,4.25,12.21,12.21,0,0,1,.44,2.88c.07,1,.14,2,.21,3.07.28,4.21.51,8,.65,10.78,0,1.3.1,2.39.13,3.27a5.21,5.21,0,0,1,0,1.21,5.68,5.68,0,0,1-.18-1.19c-.08-.88-.18-2-.3-3.26-.23-2.76-.52-6.57-.8-10.78-.07-1.05-.13-2.08-.2-3.07a11.65,11.65,0,0,0-.4-2.78A10.5,10.5,0,0,0,193,176.7,14.44,14.44,0,0,0,189.49,174Z" style="fill: rgb(38, 50, 56); transform-origin: 193.338px 187.955px;" id="elo6a0xvz03ha" class="animable"></path><path d="M176.52,229s2.42,2.72,4.41,3.33h9.42a9.34,9.34,0,0,0,4.59-3Z" style="fill: rgb(69, 90, 100); transform-origin: 185.73px 230.665px;" id="elh3yj1v565xr" class="animable"></path><path d="M182.44,234.34h6.17A6.69,6.69,0,0,1,195.3,241v.7a0,0,0,0,1,0,0H175.75a0,0,0,0,1,0,0V241A6.69,6.69,0,0,1,182.44,234.34Z" style="fill: rgb(69, 90, 100); transform-origin: 185.525px 238.02px;" id="eloyarqw0nqnm" class="animable"></path><rect x="180.42" y="230.63" width="10.05" height="5.26" style="fill: rgb(69, 90, 100); transform-origin: 185.445px 233.26px;" id="el7eyb0cs8x9g" class="animable"></rect><rect x="171.13" y="241.22" width="28.44" height="2.61" rx="1.18" style="fill: rgb(69, 90, 100); transform-origin: 185.35px 242.525px;" id="el4tvzpir7bbp" class="animable"></rect><path d="M193,206.35a51.55,51.55,0,0,1-7.26.26,51.34,51.34,0,0,1-7.25-.26,48.7,48.7,0,0,1,7.25-.27A48.89,48.89,0,0,1,193,206.35Z" style="fill: rgb(38, 50, 56); transform-origin: 185.745px 206.344px;" id="elc7jdja7749f" class="animable"></path><path d="M195.28,191.77a82.56,82.56,0,0,1-9.44.27,82.41,82.41,0,0,1-9.44-.27,86.9,86.9,0,0,1,9.44-.26A87.05,87.05,0,0,1,195.28,191.77Z" style="fill: rgb(38, 50, 56); transform-origin: 185.84px 191.776px;" id="elvfnf3kqaa2" class="animable"></path><path d="M190.59,232.15a24.64,24.64,0,0,1-5,.26,24.64,24.64,0,0,1-5-.26,24.64,24.64,0,0,1,5-.26A24.64,24.64,0,0,1,190.59,232.15Z" style="fill: rgb(38, 50, 56); transform-origin: 185.59px 232.15px;" id="elgnemrof82g" class="animable"></path><path d="M190,234.41a23,23,0,0,1-4.84.26,22.92,22.92,0,0,1-4.83-.26,22.92,22.92,0,0,1,4.83-.26A23,23,0,0,1,190,234.41Z" style="fill: rgb(38, 50, 56); transform-origin: 185.165px 234.41px;" id="elf4r28bcl1g6" class="animable"></path><path d="M197.25,241.36c0,.15-4.84.26-10.8.26s-10.81-.11-10.81-.26,4.84-.26,10.81-.26S197.25,241.22,197.25,241.36Z" style="fill: rgb(38, 50, 56); transform-origin: 186.445px 241.36px;" id="el3prmqk3dmtl" class="animable"></path><path d="M186.78,236c0,.14-.83.29-1.88.32s-1.89-.06-1.89-.2.83-.29,1.88-.32S186.78,235.81,186.78,236Z" style="fill: rgb(255, 255, 255); transform-origin: 184.895px 236.058px;" id="el4wg7dxrkc4a" class="animable"></path><path d="M187.57,207.94c0,.14-.76.28-1.7.32s-1.7-.06-1.7-.21.75-.28,1.69-.31S187.56,207.79,187.57,207.94Z" style="fill: rgb(255, 255, 255); transform-origin: 185.87px 208.001px;" id="elun4g1jo3nuk" class="animable"></path><path d="M188.17,190.94a17,17,0,0,1-5.92.38,9,9,0,0,1,2.95-.45A8.9,8.9,0,0,1,188.17,190.94Z" style="fill: rgb(255, 255, 255); transform-origin: 185.21px 191.101px;" id="el9j29t5aley7" class="animable"></path><path d="M172.59,221.32a18.05,18.05,0,0,1-.05-4.24,17.85,17.85,0,0,1,.47-4.21,16.81,16.81,0,0,1,.05,4.24A16.78,16.78,0,0,1,172.59,221.32Z" style="fill: rgb(255, 255, 255); transform-origin: 172.805px 217.095px;" id="elkrq0kp4pywk" class="animable"></path><path d="M199.48,220.54a31,31,0,0,1-1.24-6.38,30.76,30.76,0,0,1-.38-6.49,59,59,0,0,1,.9,6.42A59.58,59.58,0,0,1,199.48,220.54Z" style="fill: rgb(255, 255, 255); transform-origin: 198.653px 214.105px;" id="ely7y5svmt2uk" class="animable"></path><polygon points="191.78 227.19 191.06 239.63 190.48 227.19 179.65 226.61 190.46 226.04 191.11 213.78 191.63 226.05 205.52 226.66 191.78 227.19" style="fill: rgb(255, 255, 255); transform-origin: 192.585px 226.705px;" id="eljrgljpld778" class="animable"></polygon><polygon points="190.1 226.41 187.29 221.9 190.79 225.93 190.1 226.41" style="fill: rgb(255, 255, 255); transform-origin: 189.04px 224.155px;" id="elw1qgywqu77" class="animable"></polygon><polygon points="191.1 226.1 194.87 222.4 191.7 226.71 191.1 226.1" style="fill: rgb(255, 255, 255); transform-origin: 192.985px 224.555px;" id="eluee2ug0o549" class="animable"></polygon><polygon points="191.78 227 194.58 231.51 191.08 227.48 191.78 227" style="fill: rgb(255, 255, 255); transform-origin: 192.83px 229.255px;" id="el61qch7f3iae" class="animable"></polygon><polygon points="190.77 227.31 187.01 231.01 190.17 226.71 190.77 227.31" style="fill: rgb(255, 255, 255); transform-origin: 188.89px 228.86px;" id="elw52s5fx5dl" class="animable"></polygon><path d="M202.7,117.47a18.73,18.73,0,0,1-2.72-.8c-1.67-.54-4-1.23-6.57-1.88s-5-1.1-6.68-1.41a19.88,19.88,0,0,1-2.78-.56,13.07,13.07,0,0,1,2.84.19,59.85,59.85,0,0,1,6.75,1.28,58.83,58.83,0,0,1,6.56,2A13,13,0,0,1,202.7,117.47Z" style="fill: rgb(255, 255, 255); transform-origin: 193.325px 115.139px;" id="el6bv51xnv0gs" class="animable"></path></g><g id="freepik--light-controls--inject-301" class="animable" style="transform-origin: 233.105px 246.4px;"><path d="M425.4,129.43a2.51,2.51,0,0,1-.08-.72c0-.49,0-1.2-.08-2.12,0-1.88-.08-4.62-.14-8.14-.06-7.09-.15-17.32-.25-30,0-6.32-.06-13.25-.1-20.68,0-3.72,0-7.57,0-11.53,0-2,0-4,0-6,0-.51,0-1,0-1.54l0-.7-.11-.68a6.46,6.46,0,0,0-1.15-2.53,6.38,6.38,0,0,0-4.87-2.6c-2.07,0-4.29,0-6.46,0H398.68l-28.16,0c-38.61,0-73.55-.09-98.85-.23h-2.34a18.84,18.84,0,0,1-2.35-.11,11,11,0,0,1-4.3-1.56,10.7,10.7,0,0,1-4.74-6.68,14.5,14.5,0,0,1-.27-3.71c0-1.17,0-2.29,0-3.37,0-2.15.05-4.11.07-5.88.06-3.53.11-6.27.14-8.15,0-.92.06-1.62.08-2.12a2.6,2.6,0,0,1,.08-.72,2.6,2.6,0,0,1,.08.72c0,.5,0,1.2.08,2.12,0,1.88.08,4.62.14,8.15,0,1.77.05,3.73.07,5.88,0,1.08,0,2.2,0,3.37a13.86,13.86,0,0,0,.31,3.51,9.78,9.78,0,0,0,4.42,6,9.65,9.65,0,0,0,3.91,1.36c1.38.15,3,0,4.55.07,25.3-.14,60.24-.23,98.85-.23h28.16l13.39,0c2.21,0,4.32,0,6.53,0a7.88,7.88,0,0,1,6,3.2,8,8,0,0,1,1.39,3.1l.12.84,0,.83v1.54q0,3,0,6c0,4,0,7.81,0,11.53,0,7.43-.07,14.36-.1,20.68-.1,12.64-.19,22.87-.24,30-.07,3.52-.12,6.26-.15,8.14,0,.92-.06,1.63-.08,2.12A2.51,2.51,0,0,1,425.4,129.43Z" style="fill: rgb(69, 90, 100); transform-origin: 341.844px 69.545px;" id="elmwa1r7wd8zl" class="animable"></path><rect x="403.59" y="117.56" width="57.26" height="73.54" style="fill: rgb(38, 50, 56); transform-origin: 432.22px 154.33px;" id="ele2qdw1m1izr" class="animable"></rect><rect x="394.45" y="117.56" width="57.26" height="73.54" style="fill: rgb(69, 90, 100); transform-origin: 423.08px 154.33px;" id="ellus74x2bv2f" class="animable"></rect><path d="M444.5,184a1.5,1.5,0,0,1,0-.3c0-.21,0-.49,0-.85,0-.76,0-1.86,0-3.28,0-2.87,0-7-.06-12.3,0-10.55-.07-25.48-.12-43.12l.24.23-42.9,0h0l.26-.26c0,22.4,0,43.12-.05,59.85l-.21-.21,31.15.11,8.67,0,2.28,0,.8,0-.75,0-2.25,0-8.62.06-31.28.11h-.21V184c0-16.73,0-37.45,0-59.85l.26-.26h0l42.9,0h.24v.24c-.05,17.71-.09,32.69-.12,43.27,0,5.24-.05,9.39-.06,12.25,0,1.4,0,2.48,0,3.23,0,.35,0,.62,0,.83S444.5,184,444.5,184Z" style="fill: rgb(38, 50, 56); transform-origin: 423.15px 153.965px;" id="elkqvt0xnkfv8" class="animable"></path><path d="M423.05,139.34S410.29,160,410.61,159.81s24.09,0,24.09,0Z" style="fill: rgb(255, 255, 255); transform-origin: 422.652px 149.576px;" id="elz0hwoxhar9e" class="animable"></path><polygon points="421.53 148.03 424.34 148.03 422.85 151.68 425.33 151.68 421.49 157.96 422.08 153.81 419.97 153.81 421.53 148.03" style="fill: rgb(69, 90, 100); transform-origin: 422.65px 152.995px;" id="el5gxsqc9s1jg" class="animable"></polygon><circle cx="405.26" cy="155.71" r="1.67" style="fill: rgb(38, 50, 56); transform-origin: 405.26px 155.71px;" id="elearjld3awo" class="animable"></circle><rect x="282.45" y="39.08" width="1.91" height="5.56" style="fill: rgb(69, 90, 100); transform-origin: 283.405px 41.86px;" id="elnq6id4o92l" class="animable"></rect><rect x="383.74" y="39.08" width="1.91" height="5.56" style="fill: rgb(69, 90, 100); transform-origin: 384.695px 41.86px;" id="elk17d9acucm" class="animable"></rect><g id="elxamptwtg6yn"><rect x="424.45" y="70.56" width="1.91" height="5.56" style="fill: rgb(69, 90, 100); transform-origin: 425.405px 73.34px; transform: rotate(-90deg);" class="animable"></rect></g><rect x="51.25" y="280" width="1.91" height="5.56" style="fill: rgb(69, 90, 100); transform-origin: 52.205px 282.78px;" id="elrx1hu4ncm1i" class="animable"></rect><g id="elianttqgz1qd"><rect x="87.56" y="315.22" width="1.91" height="5.56" style="fill: rgb(69, 90, 100); transform-origin: 88.515px 318px; transform: rotate(-90deg);" class="animable"></rect></g><g id="elcdwntfma7rr"><rect x="87.56" y="395.48" width="1.91" height="5.56" style="fill: rgb(69, 90, 100); transform-origin: 88.515px 398.26px; transform: rotate(-90deg);" class="animable"></rect></g><path d="M5.36,282.78a2.64,2.64,0,0,1,.73-.08l2.12-.08,8.17-.15,30-.24,20.73-.1,11.56,0c1,0,1.93,0,3.07,0a8.28,8.28,0,0,1,3.15,1,8.38,8.38,0,0,1,4,5.21,12.39,12.39,0,0,1,.28,3.32c0,1.06,0,2.13,0,3.2q0,3.22,0,6.51,0,6.58,0,13.43c0,9.12,0,18.56,0,28.24,0,38.7-.08,73.73-.23,99.09-.1,12.67-.18,22.92-.24,30-.07,3.53-.12,6.28-.15,8.16,0,.92-.06,1.63-.08,2.12a2.22,2.22,0,0,1-.08.73,3.25,3.25,0,0,1-.08-.73c0-.49,0-1.2-.08-2.12,0-1.88-.08-4.63-.14-8.16-.06-7.11-.15-17.36-.25-30-.14-25.36-.23-60.39-.23-99.09,0-9.68,0-19.12,0-28.24q0-6.84,0-13.43,0-3.28,0-6.51c0-1.07,0-2.14,0-3.2a11.25,11.25,0,0,0-.22-3,7,7,0,0,0-3.34-4.34,6.71,6.71,0,0,0-2.61-.83c-.87-.08-2,0-2.92,0l-11.56,0-20.73-.1-30-.25-8.17-.14-2.12-.08A2.64,2.64,0,0,1,5.36,282.78Z" style="fill: rgb(69, 90, 100); transform-origin: 47.273px 382.635px;" id="elu5hybavtei" class="animable"></path></g><g id="freepik--Box--inject-301" class="animable" style="transform-origin: 314.905px 442.695px;"><rect x="258.16" y="401.9" width="113.49" height="81.59" style="fill: rgb(50, 205, 50); transform-origin: 314.905px 442.695px;" id="el5neu9hcg18" class="animable"></rect><path d="M288.6,401.9c.16,0,0,17.23,0,17.23h-8.4V401.9Z" style="fill: rgb(38, 50, 56); transform-origin: 284.436px 410.515px;" id="eltv2vwowu48e" class="animable"></path><g id="el1bh2l3ajysp"><g style="opacity: 0.4; transform-origin: 343.27px 442.695px;" class="animable"><g id="eltxbdcmtu6f"><rect x="314.9" y="401.9" width="56.74" height="81.59" class="animable" style="transform-origin: 343.27px 442.695px; transform: rotate(180deg);"></rect></g></g></g><rect x="261.62" y="467.52" width="15.19" height="10.75" style="fill: rgb(250, 250, 250); transform-origin: 269.215px 472.895px;" id="eld4vgwwsj0y" class="animable"></rect><rect x="279.62" y="467.52" width="7.6" height="10.75" style="fill: rgb(250, 250, 250); transform-origin: 283.42px 472.895px;" id="el3i03amb17ns" class="animable"></rect></g><g id="freepik--Floor--inject-301" class="animable" style="transform-origin: 250px 483.49px;"><path d="M474.08,483.49c0,.15-100.33.26-224.07.26s-224.09-.11-224.09-.26,100.31-.26,224.09-.26S474.08,483.35,474.08,483.49Z" style="fill: rgb(38, 50, 56); transform-origin: 250px 483.49px;" id="elo4d63mty0nf" class="animable"></path></g><defs>     <filter id="active" height="200%">         <feMorphology in="SourceAlpha" result="DILATED" operator="dilate" radius="2"></feMorphology>                <feFlood flood-color="#32DFEC" flood-opacity="1" result="PINK"></feFlood>        <feComposite in="PINK" in2="DILATED" operator="in" result="OUTLINE"></feComposite>        <feMerge>            <feMergeNode in="OUTLINE"></feMergeNode>            <feMergeNode in="SourceGraphic"></feMergeNode>        </feMerge>    </filter>    <filter id="hover" height="200%">        <feMorphology in="SourceAlpha" result="DILATED" operator="dilate" radius="2"></feMorphology>                <feFlood flood-color="#ff0000" flood-opacity="0.5" result="PINK"></feFlood>        <feComposite in="PINK" in2="DILATED" operator="in" result="OUTLINE"></feComposite>        <feMerge>            <feMergeNode in="OUTLINE"></feMergeNode>            <feMergeNode in="SourceGraphic"></feMergeNode>        </feMerge>            <feColorMatrix type="matrix" values="0   0   0   0   0                0   1   0   0   0                0   0   0   0   0                0   0   0   1   0 "></feColorMatrix>    </filter></defs></svg>