<?xml version="1.0" encoding="utf-8"?>
<!-- Generator: Adobe Illustrator 19.0.1, SVG Export Plug-In . SVG Version: 6.00 Build 0)  -->
<svg version="1.1" id="Layer_1" xmlns="http://www.w3.org/2000/svg" xmlns:xlink="http://www.w3.org/1999/xlink" x="0px" y="0px"
	 viewBox="0 0 1024 800" style="enable-background:new 0 0 1024 800;" xml:space="preserve">
<style type="text/css">
	.st0{fill:url(#SVGID_1_);}
</style>
<g>
	<g>
		<linearGradient id="SVGID_1_" gradientUnits="userSpaceOnUse" x1="512" y1="272.5128" x2="1254.4165" y2="272.5128">
			<stop  offset="0" style="stop-color:#A020F0"/>
			<stop  offset="1" style="stop-color:#6E48AA"/>
		</linearGradient>
		<path class="st0" d="M910.2,559h-27c0.5-0.6,1.1-1.3,1.6-1.9l369.6-369.6L980.6-86.4L820.2,74h32c2.1,0,3.8,1.7,3.8,3.8v0.4
			c0,2.1-1.7,3.8-3.8,3.8h-40l-102,102h-64.4c-2.1,0-3.8,1.7-3.8,3.8v0.4c0,2.1,1.7,3.8,3.8,3.8h56.4l-34,34h80
			c2.1,0,3.8,1.7,3.8,3.8v0.4c0,2.1-1.7,3.8-3.8,3.8h-88l-65.7,65.7c-1.7,1.7-3.4,3.5-5,5.2c0,0-0.1,0.1-0.1,0.1h-20.6
			c-2.1,0-3.8,1.7-3.8,3.8v0.4c0,2.1,1.7,3.8,3.8,3.8h13.6c-3.8,4.5-7.3,9.2-10.6,14h-46c-2.1,0-3.8,1.7-3.8,3.8v0.4
			c0,2.1,1.7,3.8,3.8,3.8h40.7c-13.1,21.1-21.7,44.3-25.9,68h44.6c2.1,0,3.8,1.7,3.8,3.8v0.4c0,2.1-1.7,3.8-3.8,3.8h-45.8
			c-4.5,33.6-0.2,68.2,12.8,100h-12.4c-2.1,0-3.8,1.7-3.8,3.8v0.4c0,2.1,1.7,3.8,3.8,3.8h15.9c1.6,3.4,3.2,6.7,5,10h-44.9
			c-2.1,0-3.8,1.7-3.8,3.8v0.4c0,2.1,1.7,3.8,3.8,3.8h49.4c8,13.4,17.8,26,29.3,37.5c7.2,7.2,14.8,13.7,22.7,19.5h64
			c2.1,0,3.8,1.7,3.8,3.8v0.4c0,2.1-1.7,3.8-3.8,3.8h-52.2c71.6,44.8,166.1,38.4,231.2-19h11.9c2.1,0,3.8-1.7,3.8-3.8v-0.4
			c0-2.1-1.7-3.8-3.8-3.8h-3.4c0.2-0.2,0.3-0.3,0.5-0.5c2.4-2.4,4.8-5,7.1-7.5h33.8c2.1,0,3.8-1.7,3.8-3.8v-0.4
			C914,560.7,912.3,559,910.2,559z"/>
	</g>
</g>
</svg>
